<?xml version="1.0" encoding="UTF-8" standalone="no"?>
<svg width="145px" height="42px" viewBox="0 0 145 42" version="1.1" xmlns="http://www.w3.org/2000/svg" xmlns:xlink="http://www.w3.org/1999/xlink" xmlns:sketch="http://www.bohemiancoding.com/sketch/ns">
    <!-- Generator: Sketch 3.4.4 (17249) - http://www.bohemiancoding.com/sketch -->
    <title>logo</title>
    <desc>Created with Sketch.</desc>
    <defs>
        <filter x="-50%" y="-50%" width="200%" height="200%" filterUnits="objectBoundingBox" id="filter-1">
            <feOffset dx="0" dy="1" in="SourceAlpha" result="shadowOffsetOuter1"></feOffset>
            <feGaussianBlur stdDeviation="0" in="shadowOffsetOuter1" result="shadowBlurOuter1"></feGaussianBlur>
            <feColorMatrix values="0 0 0 0 0.935188138   0 0 0 0 0.935188138   0 0 0 0 0.935188138  0 0 0 0.7 0" in="shadowBlurOuter1" type="matrix" result="shadowMatrixOuter1"></feColorMatrix>
            <feOffset dx="0" dy="2" in="SourceAlpha" result="shadowOffsetOuter2"></feOffset>
            <feGaussianBlur stdDeviation="2" in="shadowOffsetOuter2" result="shadowBlurOuter2"></feGaussianBlur>
            <feColorMatrix values="0 0 0 0 0   0 0 0 0 0   0 0 0 0 0  0 0 0 0.14 0" in="shadowBlurOuter2" type="matrix" result="shadowMatrixOuter2"></feColorMatrix>
            <feMerge>
                <feMergeNode in="shadowMatrixOuter1"></feMergeNode>
                <feMergeNode in="shadowMatrixOuter2"></feMergeNode>
                <feMergeNode in="SourceGraphic"></feMergeNode>
            </feMerge>
        </filter>
        <linearGradient x1="-388.147851%" y1="-144.177425%" x2="237.683809%" y2="430.405754%" id="linearGradient-2">
            <stop stop-color="#C06FBB" offset="0%"></stop>
            <stop stop-color="#6E4D9B" offset="100%"></stop>
        </linearGradient>
        <linearGradient x1="72.9454854%" y1="84.4240777%" x2="-97.0517904%" y2="-147.696591%" id="linearGradient-3">
            <stop stop-color="#6E4D9B" offset="0%"></stop>
            <stop stop-color="#77327A" offset="14%"></stop>
            <stop stop-color="#B31777" offset="29%"></stop>
            <stop stop-color="#CD0F7E" offset="84%"></stop>
            <stop stop-color="#ED2C89" offset="100%"></stop>
        </linearGradient>
        <linearGradient x1="-283.884079%" y1="-693.599872%" x2="287.537417%" y2="101.70976%" id="linearGradient-4">
            <stop stop-color="#C06FBB" offset="0%"></stop>
            <stop stop-color="#6E4D9B" offset="100%"></stop>
        </linearGradient>
        <linearGradient x1="-821.186214%" y1="-469.047862%" x2="101.985142%" y2="288.23598%" id="linearGradient-5">
            <stop stop-color="#C06FBB" offset="0%"></stop>
            <stop stop-color="#6E4D9B" offset="100%"></stop>
        </linearGradient>
        <linearGradient x1="-140.359373%" y1="-230.925718%" x2="419.012316%" y2="261.976742%" id="linearGradient-6">
            <stop stop-color="#C06FBB" offset="0%"></stop>
            <stop stop-color="#6E4D9B" offset="100%"></stop>
        </linearGradient>
        <linearGradient x1="191.083716%" y1="253.952517%" x2="20.3577022%" y2="20.4029283%" id="linearGradient-7">
            <stop stop-color="#6E4D9B" offset="0%"></stop>
            <stop stop-color="#77327A" offset="14%"></stop>
            <stop stop-color="#B31777" offset="29%"></stop>
            <stop stop-color="#CD0F7E" offset="84%"></stop>
            <stop stop-color="#ED2C89" offset="100%"></stop>
        </linearGradient>
        <linearGradient x1="-388.094004%" y1="-173.850055%" x2="237.674802%" y2="518.990225%" id="linearGradient-8">
            <stop stop-color="#C06FBB" offset="0%"></stop>
            <stop stop-color="#6E4D9B" offset="100%"></stop>
        </linearGradient>
        <linearGradient x1="11.1884561%" y1="89.6525993%" x2="90.145125%" y2="11.5773982%" id="linearGradient-9">
            <stop stop-color="#6E4D9B" offset="0%"></stop>
            <stop stop-color="#77327A" offset="14%"></stop>
            <stop stop-color="#B31777" offset="53%"></stop>
            <stop stop-color="#CD0F7E" offset="79%"></stop>
            <stop stop-color="#ED2C89" offset="100%"></stop>
        </linearGradient>
    </defs>
    <g id="Main-Navigation" stroke="none" stroke-width="1" fill="none" fill-rule="evenodd" sketch:type="MSPage">
        <g id="Main-Navigation---Home" sketch:type="MSArtboardGroup" transform="translate(-34.000000, -17.000000)">
            <g id="Main-Nav" sketch:type="MSLayerGroup">
                <rect id="Nav-Background" fill="#FFFFFF" filter="url(#filter-1)" sketch:type="MSShapeGroup" x="0" y="0" width="1280" height="80"></rect>
                <g id="logo" transform="translate(30.000000, 14.000000)" sketch:type="MSShapeGroup">
                    <g id="Aurelia_Logo_Color_RGB">
                        <g id="Full-Logo" transform="translate(0.131960, 0.021427)">
                            <g id="Aurelia" transform="translate(50.929505, 11.290297)">
                                <g id="A" transform="translate(0.076673, 8.413465)" fill="#ED2C88">
                                    <path d="M8.79524752,16.5403564 C8.91089109,16.5398812 9.02811881,16.5376634 9.14376238,16.5325941 C9.38930693,16.5216634 9.63326733,16.4993267 9.87722772,16.4652673 C10.5853465,16.3659406 11.2792079,16.167604 11.9334653,15.8765941 C12.7429703,15.5166733 13.4891089,15.0162376 14.1306931,14.4050693 C14.7358416,13.8271683 15.2475248,13.1512079 15.6388119,12.4104554 C15.969901,11.7821782 16.2138614,11.1084356 16.3611881,10.4133069 C16.540198,9.56356436 16.5750495,8.68324752 16.4657426,7.82178218 C16.3643564,7.03271287 16.1425743,6.26043564 15.8051485,5.53964356 C15.4186139,4.70954455 14.8815842,3.95025743 14.230495,3.30645545 C13.5445545,2.62922772 12.7334653,2.08110891 11.8479208,1.70011881 C11.3679208,1.49354455 10.8657426,1.33607921 10.3540594,1.23136634 C9.87405941,1.13314851 9.38455446,1.0810297 8.8950495,1.07485149 C8.41821782,1.06883168 7.94138614,1.10590099 7.47247525,1.18669307 C6.94019802,1.27841584 6.41742574,1.42653465 5.91524752,1.62788119 C5.03445545,1.98130693 4.22178218,2.49916832 3.52633663,3.14582178 C2.84514851,3.78011881 2.27960396,4.53687129 1.86455446,5.37061386 C1.51287129,6.08079208 1.27049505,6.8449901 1.15009901,7.6289901 C1.0170297,8.50407921 1.03287129,9.40229703 1.20079208,10.2718416 C1.3370297,10.9859802 1.57623762,11.6801584 1.90732673,12.3274455 C2.28910891,13.0731089 2.79287129,13.7552475 3.39326733,14.3405941 C4.01425743,14.9482772 4.73821782,15.450297 5.52712871,15.8181386 C6.15920792,16.1134257 6.83247525,16.321901 7.52,16.4359604 C7.76079208,16.4758812 8.00475248,16.504396 8.24871287,16.5213465 C8.38019802,16.5305347 8.51168317,16.5359208 8.64475248,16.5389307 C8.69544554,16.5397228 8.74455446,16.540198 8.79524752,16.5403564 L8.79524752,16.5403564 Z M16.8538614,12.199604 C16.769901,12.3988911 16.6780198,12.5950099 16.579802,12.7874851 C16.1330693,13.6613069 15.5374257,14.4579802 14.8261386,15.1353663 C14.1275248,15.8018218 13.3180198,16.3518416 12.440396,16.7550099 C11.7053465,17.0924356 10.9243564,17.3265743 10.1259406,17.4487129 C9.85188119,17.4905347 9.57623762,17.5193663 9.2990099,17.5350495 C9.16910891,17.542495 9.03762376,17.5466139 8.90772277,17.5486733 C8.86970297,17.5491485 8.83168317,17.5493069 8.79524752,17.5494653 C8.66376238,17.5489901 8.53227723,17.5466139 8.40079208,17.5407525 C8.12356436,17.528396 7.84792079,17.5030495 7.57227723,17.4647129 C6.77069307,17.352396 5.9849505,17.1277624 5.24514851,16.7987327 C4.34693069,16.3988911 3.51683168,15.8460198 2.80079208,15.1714851 C2.07366337,14.4861782 1.46534653,13.6768317 1.00910891,12.7874851 C0.641584158,12.0712871 0.375445545,11.3045545 0.218613861,10.5151683 C0.0316831683,9.57037624 0.00316831683,8.59453465 0.12990099,7.63992079 C0.247128713,6.76625743 0.495841584,5.91128713 0.86970297,5.11271287 C1.31485149,4.15857426 1.93425743,3.28760396 2.68831683,2.55192079 C3.46613861,1.79073267 4.38811881,1.17671287 5.39089109,0.752316832 C5.92,0.528633663 6.47128713,0.35770297 7.03366337,0.242693069 C7.59445545,0.128 8.16633663,0.0687524752 8.73821782,0.0652673267 C9.31168317,0.0616237624 9.88514851,0.113584158 10.4491089,0.221465347 C11.0130693,0.329663366 11.5675248,0.493940594 12.099802,0.711287129 C13.1089109,1.12364356 14.0372277,1.72689109 14.8261386,2.4790495 C15.5754455,3.1930297 16.1964356,4.03960396 16.6510891,4.96918812 C16.7223762,5.11588119 16.790495,5.26447525 16.8538614,5.4149703 L16.8538614,0.0944158416 L17.8439604,0.0944158416 L17.8439604,17.5201584 L16.8538614,17.5201584 L16.8538614,12.199604 L16.8538614,12.199604 Z" id="Shape"></path>
                                </g>
                                <g id="U" transform="translate(20.353901, 8.413465)" fill="#CD0F7E">
                                    <path d="M16.5370297,12.8188515 C16.1710891,13.5234851 15.7116832,14.1790099 15.1714851,14.761505 C14.710495,15.2605149 14.1893069,15.7056634 13.6253465,16.0845941 C13.0106931,16.4967921 12.3421782,16.8299406 11.6435644,17.0724752 C11.0637624,17.2736634 10.4617822,17.4122772 9.85188119,17.4859406 C9.64910891,17.510495 9.44792079,17.5277624 9.24356436,17.5380594 C9.13108911,17.5437624 9.02019802,17.5469307 8.90772277,17.5486733 C8.86970297,17.5491485 8.83168317,17.5493069 8.79524752,17.5494653 C8.68118812,17.5491485 8.57029703,17.5472475 8.45623762,17.5429703 C8.21544554,17.5339406 7.97465347,17.5149307 7.73544554,17.486099 C7.03366337,17.401505 6.3429703,17.2318416 5.68079208,16.981703 C4.68910891,16.6065743 3.76712871,16.0505347 2.97188119,15.3492277 C2.40792079,14.8505347 1.90574257,14.2788119 1.48752475,13.6519604 C1.03445545,12.9745743 0.678019802,12.2330297 0.435643564,11.4553663 C0.256633663,10.8830099 0.139405941,10.291802 0.0855445545,9.69473267 C0.0586138614,9.39865347 0.0491089109,9.10162376 0.0522772277,8.80443564 L0.0522772277,0.0944158416 L1.06138614,0.0944158416 L1.06138614,8.81013861 L1.06138614,8.91453465 L1.06138614,9.0140198 C1.0629703,9.1130297 1.06455446,9.21188119 1.07089109,9.31073267 C1.0819802,9.53805941 1.10415842,9.76491089 1.13584158,9.99033663 C1.22772277,10.6333465 1.40356436,11.264 1.66019802,11.8613861 C2.01980198,12.7047921 2.53623762,13.4792871 3.16990099,14.1414653 C3.79564356,14.7939802 4.53544554,15.3357624 5.3449505,15.7362376 C6.05940594,16.0890297 6.82772277,16.3310891 7.6150495,16.4511683 C8.42613861,16.5747327 9.25782178,16.5704554 10.0673267,16.4359604 C10.7057426,16.3296634 11.3314851,16.1416238 11.9239604,15.8769109 C12.7714851,15.4979802 13.5477228,14.9631683 14.2067327,14.3089109 C14.8340594,13.6853861 15.3536634,12.9552475 15.740198,12.1587327 C16.0586139,11.5003564 16.2835644,10.7976238 16.4087129,10.0771485 C16.4578218,9.80308911 16.4910891,9.52665347 16.510099,9.24926733 C16.5180198,9.11651485 16.5243564,8.98376238 16.5275248,8.85069307 L16.5275248,8.80316832 L16.5370297,0.0944158416 L17.5271287,0.0944158416 L17.5271287,17.5201584 L16.5370297,17.5201584 L16.5370297,12.8188515 L16.5370297,12.8188515 Z" id="Shape"></path>
                                </g>
                                <g id="R" transform="translate(40.314297, 8.413465)" fill="#B31776">
                                    <path d="M1.06455446,8.41552475 L1.04237624,17.5201584 L0.0522772277,17.5201584 L0.0522772277,0.0944158416 L1.04237624,0.0944158416 L1.04237624,4.55524752 C1.16594059,4.32966337 1.30059406,4.10978218 1.44316832,3.89639604 C1.83287129,3.31691089 2.29544554,2.78637624 2.81346535,2.31889109 C3.57069307,1.63611881 4.44831683,1.08910891 5.39405941,0.706693069 C6.08950495,0.425188119 6.82138614,0.232871287 7.56594059,0.133386139 C7.82257426,0.0993267327 8.07920792,0.076039604 8.33742574,0.0635247525 C8.48633663,0.0563960396 8.63524752,0.0532277228 8.78415842,0.0527524752 L8.78732673,1.08641584 C8.75247525,1.08657426 8.71920792,1.08673267 8.68594059,1.0870495 C8.65267327,1.08752475 8.61940594,1.08815842 8.58613861,1.0889505 C8.47049505,1.0919604 8.35485149,1.09687129 8.23920792,1.10463366 C7.99524752,1.12079208 7.75287129,1.14788119 7.51207921,1.18590099 C6.87366337,1.28681188 6.24792079,1.46550495 5.65227723,1.71849505 C4.82693069,2.0700198 4.06178218,2.56506931 3.40594059,3.17813861 C2.94653465,3.60712871 2.5409901,4.09346535 2.20356436,4.62320792 C1.85663366,5.16673267 1.5809901,5.75619802 1.38930693,6.37180198 C1.25306931,6.80966337 1.15960396,7.26035644 1.10891089,7.71611881 C1.0819802,7.94851485 1.06930693,8.18186139 1.06455446,8.41552475 L1.06455446,8.41552475 Z" id="Shape"></path>
                                </g>
                                <g id="E" transform="translate(48.393505, 8.413465)" fill="#9B2073">
                                    <path d="M9.3750495,17.5510495 L8.81584158,17.5493069 C8.77940594,17.5488317 8.74138614,17.5483564 8.70336634,17.5478812 C8.59089109,17.5453465 8.48,17.5413861 8.36752475,17.5350495 C8.12831683,17.5214257 7.88910891,17.4979802 7.65148515,17.4647129 C6.98930693,17.3720396 6.33980198,17.2033267 5.71722772,16.9623762 C4.68277228,16.5620594 3.72910891,15.9626139 2.9180198,15.2072871 C2.12118812,14.4663762 1.46534653,13.5773465 0.993267327,12.5975446 C0.643168317,11.8707327 0.394455446,11.0954455 0.258217822,10.3003564 C0.0934653465,9.35081188 0.0887128713,8.37386139 0.239207921,7.42241584 C0.400792079,6.41489109 0.73980198,5.43778218 1.23722772,4.54732673 C1.78376238,3.56879208 2.52039604,2.69845545 3.39326733,1.99524752 C3.85742574,1.62075248 4.36118812,1.29394059 4.89188119,1.02178218 C5.3829703,0.770217822 5.89782178,0.565544554 6.42851485,0.411564356 C7.18574257,0.191524752 7.97148515,0.0757227723 8.76039604,0.0657425743 C9.64118812,0.0546534653 10.5235644,0.175366337 11.369505,0.426772277 C12.3184158,0.709386139 13.2182178,1.15564356 14.019802,1.73972277 C14.8673267,2.35849505 15.6023762,3.12966337 16.1805941,4.00665347 C16.5592079,4.58233663 16.869703,5.2030099 17.1025743,5.85172277 C17.3417822,6.51675248 17.4986139,7.21093069 17.569901,7.91413861 C17.5920792,8.13607921 17.6063366,8.35881188 17.6126733,8.58186139 C17.6126733,8.63825743 17.6142574,8.69449505 17.6142574,8.75073267 C17.6158416,8.78732673 17.6158416,8.82582178 17.6126733,8.86209901 C17.609505,8.8809505 17.6063366,8.89964356 17.6031683,8.91817822 C17.590495,8.97346535 17.5683168,9.02669307 17.5382178,9.07469307 C17.4780198,9.17132673 17.3845545,9.24562376 17.2768317,9.28332673 C17.2419802,9.29584158 17.2039604,9.30439604 17.1675248,9.30867327 C17.1485149,9.31073267 17.129505,9.31073267 17.110495,9.31184158 L9.0819802,9.31184158 L9.0819802,8.30273267 L16.5893069,8.30273267 C16.5718812,8.02867327 16.540198,7.75588119 16.4926733,7.48530693 C16.4023762,6.95271287 16.2534653,6.42962376 16.0522772,5.92807921 C15.7623762,5.20538614 15.3615842,4.528 14.8689109,3.92443564 C14.3112871,3.24007921 13.6364356,2.65188119 12.8823762,2.19342574 C12.2645545,1.81845545 11.5960396,1.53077228 10.8974257,1.34194059 C10.0625743,1.11588119 9.18970297,1.03287129 8.32633663,1.09322772 C7.90653465,1.12253465 7.48831683,1.18590099 7.07960396,1.28316832 C6.63287129,1.38914851 6.19722772,1.53520792 5.77584158,1.7189703 C4.89346535,2.10487129 4.08554455,2.65790099 3.40435644,3.33908911 C3.08752475,3.65655446 2.79762376,4.00158416 2.53940594,4.3689505 C2.21623762,4.82835644 1.94376238,5.32261386 1.72831683,5.84079208 C1.50336634,6.38384158 1.34019802,6.95287129 1.24356436,7.53314851 C1.16594059,8.00332673 1.13267327,8.48063366 1.14059406,8.95730693 C1.15168317,9.49449505 1.21663366,10.0305743 1.3370297,10.5541386 C1.47643564,11.1535842 1.68712871,11.7362376 1.96435644,12.2856238 C2.26534653,12.8817426 2.6439604,13.4382574 3.08594059,13.9375842 C3.49782178,14.4007921 3.96356436,14.8145743 4.47207921,15.1673663 C4.88237624,15.4514059 5.31960396,15.6958416 5.77584158,15.895604 C6.25584158,16.1050297 6.75485149,16.2653465 7.26653465,16.3733861 C7.59920792,16.4437228 7.93821782,16.4918812 8.27722772,16.517703 C8.45940594,16.5314851 8.64,16.5384554 8.82217822,16.540198 L9.37821782,16.5419406 C9.37821782,16.8782574 9.37663366,17.2145743 9.3750495,17.5510495 L9.3750495,17.5510495 Z" id="Shape"></path>
                                </g>
                                <g id="L" transform="translate(68.512317, 0.017426)" fill="#8F2475">
                                    <path d="M5.15009901,25.945505 C4.98851485,25.9450297 4.82693069,25.9401188 4.66534653,25.9291881 C4.32475248,25.9062178 3.98415842,25.8577426 3.65148515,25.7802772 C3.31881188,25.7026535 2.99089109,25.5957228 2.67881188,25.4566337 C2.29227723,25.2849109 1.92633663,25.0642376 1.60158416,24.7947723 C1.43049505,24.6548911 1.27207921,24.5020198 1.12633663,24.3375842 C0.942574257,24.1314851 0.780990099,23.9074851 0.641584158,23.6692277 C0.467326733,23.3699802 0.331089109,23.0491881 0.234455446,22.7168317 C0.163168317,22.4693861 0.112475248,22.2157624 0.083960396,21.9597624 C0.0601980198,21.7470099 0.0491089109,21.5329901 0.0522772277,21.3189703 L0.0522772277,0.140673267 L1.06138614,0.140673267 L1.06138614,21.3253069 L1.06138614,21.430495 C1.0629703,21.5691089 1.07089109,21.7077228 1.08673267,21.8455446 C1.11207921,22.0673267 1.15643564,22.2870495 1.2229703,22.5001188 C1.30217822,22.7510495 1.40990099,22.9927921 1.54772277,23.2172673 C1.65227723,23.3893069 1.77425743,23.5510495 1.91049505,23.699802 C2.01821782,23.8186139 2.13544554,23.9291881 2.26059406,24.0305743 C2.36514851,24.1161188 2.4760396,24.1953267 2.59009901,24.2680396 C2.68831683,24.3306139 2.78970297,24.3884356 2.89267327,24.441505 C3.38534653,24.6930693 3.92712871,24.8370693 4.47524752,24.8991683 C4.70019802,24.9246733 4.92673267,24.9357624 5.15168317,24.936396 C5.15168317,25.2727129 5.15009901,25.6090297 5.15009901,25.945505 L5.15009901,25.945505 Z" id="Shape"></path>
                                </g>
                                <g id="I" transform="translate(75.957861, 0.017426)" fill="#78327A">
                                    <path d="M0.148910891,25.916198 L0.148910891,8.49045545 L1.1390099,8.49045545 L1.1390099,25.916198 L0.148910891,25.916198 L0.148910891,25.916198 Z M0.153663366,2.47065347 L0.153663366,0.140673267 L1.13584158,0.140673267 L1.13584158,2.47065347 L0.153663366,2.47065347 L0.153663366,2.47065347 Z" id="Shape"></path>
                                </g>
                                <g id="A1" transform="translate(79.601426, 8.413465)" fill="#6E4D9B">
                                    <path d="M8.79524752,16.5403564 C8.91089109,16.5398812 9.02811881,16.5376634 9.14376238,16.5325941 C9.38930693,16.5216634 9.63326733,16.4993267 9.87722772,16.4652673 C10.5853465,16.3659406 11.2792079,16.167604 11.9334653,15.8765941 C12.6716832,15.5480396 13.3576238,15.1027327 13.959604,14.5626931 C14.6281188,13.9616634 15.1920792,13.2446733 15.6166337,12.451802 C15.9588119,11.811802 16.2106931,11.1236436 16.3611881,10.4133069 C16.5433663,9.54756436 16.5766337,8.65029703 16.4594059,7.77330693 C16.3548515,6.98550495 16.1267327,6.21528713 15.7861386,5.49718812 C15.3932673,4.66946535 14.8514851,3.91382178 14.1972277,3.27382178 C13.5065347,2.60055446 12.6922772,2.0570297 11.8051485,1.68174257 C11.3378218,1.48419802 10.849901,1.33291089 10.3540594,1.23136634 C9.85663366,1.12982178 9.35128713,1.07754455 8.84435644,1.07437624 C8.33742574,1.07120792 7.82891089,1.1169901 7.32990099,1.21251485 C6.83089109,1.30819802 6.34138614,1.45346535 5.87247525,1.64546535 C4.9790099,2.01029703 4.15683168,2.54415842 3.45980198,3.20950495 C2.7960396,3.84126733 2.24633663,4.59041584 1.8439604,5.41275248 C1.49544554,6.12546535 1.25782178,6.89188119 1.14376238,7.6769901 C1.01861386,8.53671287 1.0360396,9.41813861 1.20079208,10.2716832 C1.34336634,11.0167129 1.59683168,11.7395644 1.95009901,12.4104554 C2.34138614,13.1512079 2.85306931,13.8271683 3.45980198,14.4050693 C4.07762376,14.9945347 4.79366337,15.4813465 5.56990099,15.8379406 C6.21940594,16.1362376 6.91009901,16.3432871 7.61663366,16.4511683 C7.8590099,16.4882376 8.1029703,16.5135842 8.34693069,16.5275248 C8.46257426,16.5341782 8.57821782,16.5378218 8.69386139,16.5397228 C8.72871287,16.5400396 8.76039604,16.540198 8.79524752,16.5403564 L8.79524752,16.5403564 Z M16.8538614,12.199604 C16.769901,12.3988911 16.6780198,12.5950099 16.579802,12.7874851 C16.1251485,13.6768317 15.5152475,14.4861782 14.7881188,15.1714851 C14.0720792,15.8460198 13.2435644,16.3988911 12.3437624,16.7987327 C11.6039604,17.1277624 10.8182178,17.352396 10.0166337,17.4647129 C9.74257426,17.5030495 9.46534653,17.528396 9.18811881,17.5407525 C9.05663366,17.5466139 8.92514851,17.5489901 8.79524752,17.5494653 C8.66376238,17.5489901 8.53227723,17.5466139 8.40079208,17.5407525 C8.12356436,17.528396 7.84792079,17.5030495 7.57227723,17.4647129 C6.77069307,17.352396 5.9849505,17.1277624 5.24514851,16.7987327 C4.33108911,16.3917624 3.48673267,15.8262178 2.76277228,15.1353663 C2.05306931,14.4579802 1.45742574,13.6613069 1.00910891,12.7874851 C0.633663366,12.0551287 0.364356436,11.269703 0.209108911,10.4616238 C0.0316831683,9.53362376 0.00475247525,8.57631683 0.12990099,7.63976238 C0.248712871,6.74867327 0.506930693,5.87706931 0.891881188,5.06471287 C1.34336634,4.11342574 1.96752475,3.24641584 2.72475248,2.51548515 C3.50891089,1.75873267 4.43405941,1.15009901 5.44,0.731722772 C5.98811881,0.504237624 6.55841584,0.332990099 7.13980198,0.221465347 C7.68475248,0.117069307 8.23920792,0.0651089109 8.79524752,0.0651089109 C9.34970297,0.0651089109 9.90415842,0.117069307 10.4491089,0.221465347 C11.030495,0.332990099 11.6007921,0.504237624 12.1489109,0.731722772 C13.1548515,1.15009901 14.08,1.75873267 14.8641584,2.51532673 C15.6087129,3.23390099 16.2249505,4.08443564 16.6748515,5.01687129 C16.7382178,5.1480396 16.7968317,5.28079208 16.8538614,5.4149703 L16.8538614,0.0944158416 L17.8439604,0.0944158416 L17.8439604,17.5201584 C17.8423762,17.5393267 16.8538614,17.5201584 16.8538614,17.5201584 L16.8538614,12.199604 L16.8538614,12.199604 Z" id="Shape"></path>
                                </g>
                            </g>
                            <g id="Icon" transform="translate(25.107283, 24.232006) rotate(11.283864) translate(-25.107283, -24.232006) translate(4.607283, 3.732006)">
                                <g id="Group" transform="translate(20.579716, 5.528144) rotate(-11.283864) translate(-20.579716, -5.528144) translate(16.540110, 1.092499)" fill="url(#linearGradient-2)">
                                    <path d="M8.00158734,6.12689353 L4.11722936,8.71936981 L0.11564361,2.72253574 L4.00000159,0.130059458 L8.00158734,6.12689353 L8.00158734,6.12689353 Z" id="Shape"></path>
                                </g>
                                <g id="Group" transform="translate(31.488859, 30.245267) rotate(-11.283864) translate(-31.488859, -30.245267) translate(23.568064, 21.690808)" fill="url(#linearGradient-3)">
                                    <path d="M9.17893434,1.8875255 L15.8157687,11.832876 L7.90970612,17.1089177 L1.27287179,7.16340879 L0.115009947,5.42859622 L8.02123091,0.152554516 L9.17893434,1.8875255 L9.17893434,1.8875255 Z" id="Shape"></path>
                                </g>
                                <g id="Group" transform="translate(20.582001, 34.683017) rotate(-11.283864) translate(-20.582001, -34.683017) translate(16.146356, 30.564203)" fill="url(#linearGradient-4)">
                                    <path d="M7.30028013,1.87912946 L8.76150844,4.06875409 L2.74376347,8.08459728 L0.124673317,4.16000165 L1.43936691,3.28269438 L6.1425767,0.144158473 L7.30028013,1.87912946 L7.30028013,1.87912946 Z" id="Shape"></path>
                                </g>
                                <g id="Group" transform="translate(35.128399, 20.149849) rotate(-11.283864) translate(-35.128399, -20.149849) translate(31.801665, 16.823115)" fill="url(#linearGradient-5)">
                                    <path d="M2.32808013,1.14629749 L4.0160016,0.019960404 L6.63493333,3.94455602 L2.7501001,6.5370323 L1.2888718,4.34740767 L3.48578356,2.88126847 L2.32808013,1.14629749 L2.32808013,1.14629749 Z M1.2888718,4.34740767 L0.131168369,2.61243668 L2.32808013,1.14629749 L3.48578356,2.88126847 L1.2888718,4.34740767 L1.2888718,4.34740767 Z" id="Shape"></path>
                                </g>
                                <g id="Group" transform="translate(6.048834, 20.136618) rotate(-11.283864) translate(-6.048834, -20.136618) translate(0.979525, 15.067310)" fill="url(#linearGradient-6)">
                                    <path d="M5.34590312,9.1545383 L4.03136794,10.0318456 L0.0294653583,4.03501151 L6.04721033,0.0191683245 L8.85228075,4.22273435 L4.14922937,7.36127026 L8.85228075,4.22273435 L10.0491129,6.01616081 L5.34590312,9.1545383 L5.34590312,9.1545383 Z" id="Shape"></path>
                                </g>
                                <g id="Group" transform="translate(11.303905, 10.041936) rotate(-11.283864) translate(-11.303905, -10.041936) translate(3.383110, 1.487477)" fill="url(#linearGradient-7)">
                                    <path d="M14.5330751,9.93394455 L15.7297488,11.727371 L7.82352786,17.0034127 L6.62685412,15.2099862 L0.0521188326,5.35778431 L7.9583398,0.0817426068 L14.5330751,9.93394455 L14.5330751,9.93394455 Z" id="Shape"></path>
                                </g>
                                <g id="Group" transform="translate(20.657410, 5.510276) rotate(-11.283864) translate(-20.657410, -5.510276) translate(16.617804, 1.153838)" fill="url(#linearGradient-8)">
                                    <path d="M6.23461634,7.17671573 L4.03770458,8.64269651 L2.84087242,6.84942847 L0.0358019944,2.64586244 L3.92063522,0.0533861599 L7.92253781,6.05022023 L6.23461634,7.17671573 L6.23461634,7.17671573 Z" id="Shape"></path>
                                </g>
                                <g id="Group" transform="translate(20.272029, 33.129480) rotate(-11.283864) translate(-20.272029, -33.129480) translate(17.262126, 30.594825)" fill="#714896">
                                    <path d="M1.17148561,5.01766536 L0.0136237678,3.28269438 L4.71683356,0.144158473 L5.87453699,1.87912946 L1.17148561,5.01766536 L1.17148561,5.01766536 Z" id="Shape"></path>
                                </g>
                                <g id="Group" transform="translate(33.544049, 19.900585) rotate(-11.283864) translate(-33.544049, -19.900585) translate(31.722266, 18.237218)" fill="#6F4795">
                                    <path d="M1.2888718,3.23849634 L0.131168369,1.50352535 L2.32808013,0.0373861535 L3.48578356,1.77235714 L1.2888718,3.23849634 L1.2888718,3.23849634 Z" id="Shape"></path>
                                </g>
                                <g id="Group" transform="translate(8.378404, 21.287191) rotate(-11.283864) translate(-8.378404, -21.287191) translate(5.368502, 18.752537)" fill="#88519F">
                                    <path d="M1.2270896,5.03572478 L0.0304158537,3.24245674 L4.73346723,0.103920833 L5.93029939,1.89734729 L1.2270896,5.03572478 L1.2270896,5.03572478 Z" id="Shape"></path>
                                </g>
                                <g id="Group" transform="translate(21.634925, 7.980620) rotate(-11.283864) translate(-21.634925, -7.980620) translate(19.813143, 6.238045)" fill="#85509E">
                                    <path d="M1.3446342,3.41497166 L0.147802039,1.62170362 L2.34487222,0.155564418 L3.54154596,1.94899087 L1.3446342,3.41497166 L1.3446342,3.41497166 Z" id="Shape"></path>
                                </g>
                                <g id="Group" transform="translate(27.265517, 26.080244) rotate(-11.283864) translate(-27.265517, -26.080244) translate(22.671456, 22.436678)" fill="#8D166A">
                                    <path d="M9.17893434,1.8875255 L1.27287179,7.16340879 L0.115009947,5.42859622 L8.02123091,0.152554516 L9.17893434,1.8875255 L9.17893434,1.8875255 Z" id="Shape"></path>
                                </g>
                                <g id="Group" transform="translate(15.449570, 14.222457) rotate(-11.283864) translate(-15.449570, -14.222457) translate(10.776301, 10.578891)" fill="#A70D6F">
                                    <path d="M8.038023,0.11215846 L9.23469674,1.90558492 L1.32847578,7.18162662 L0.131802033,5.38820016 L8.038023,0.11215846 L8.038023,0.11215846 Z" id="Shape"></path>
                                </g>
                                <g id="Group" transform="translate(2.374683, 13.681530) rotate(45.000000) translate(-2.374683, -13.681530) translate(1.022317, 12.329163)" fill="#9E61AD">
                                    <rect id="Rectangle-path" x="2.13536419e-15" y="0" width="2.68841036" height="2.68841036"></rect>
                                </g>
                                <g id="Group" transform="translate(15.523201, 38.394406) rotate(45.000000) translate(-15.523201, -38.394406) translate(14.170834, 37.042039)" fill="#8053A3">
                                    <rect id="Rectangle-path" x="2.13536419e-15" y="0" width="2.68841036" height="2.68841036"></rect>
                                </g>
                                <g id="Group" transform="translate(21.322504, 21.047653) rotate(0.000000) translate(-21.322504, -21.047653) translate(1.822504, 1.547653)" fill="url(#linearGradient-9)">
                                    <path d="M8.37227889,38.293869 L0.0166336667,29.8756495 L29.7489168,0.0807920953 L38.3857502,8.28198185 L8.37227889,38.293869 L8.37227889,38.293869 Z" id="Shape"></path>
                                </g>
                            </g>
                        </g>
                    </g>
                </g>
            </g>
        </g>
    </g>
</svg>